<svg width="32" height="32" viewBox="0 0 32 32" fill="none" xmlns="http://www.w3.org/2000/svg">
<g id="vuesax/linear/align-vertically">
<g id="align-vertically">
<path id="Vector" d="M23.2 25.6663H8.8C6.8 25.6663 6 24.813 6 22.693V21.3063C6 19.1863 6.8 18.333 8.8 18.333H23.2C25.2 18.333 26 19.1863 26 21.3063V22.693C26 24.813 25.2 25.6663 23.2 25.6663Z" stroke="#FEDC5A" stroke-width="2" stroke-linecap="round" stroke-linejoin="round"/>
<path id="Vector_2" d="M20.5337 14.3333H11.467C9.46699 14.3333 8.66699 13.48 8.66699 11.36V9.97333C8.66699 7.85333 9.46699 7 11.467 7H20.5337C22.5337 7 23.3337 7.85333 23.3337 9.97333V11.36C23.3337 13.48 22.5337 14.3333 20.5337 14.3333Z" stroke="#FEDC5A" stroke-width="2" stroke-linecap="round" stroke-linejoin="round"/>
<path id="Vector_3" d="M16 29.3338V26.1338" stroke="#FEDC5A" stroke-width="2" stroke-linecap="round" stroke-linejoin="round"/>
<path id="Vector_4" d="M16 17.3337V14.667" stroke="#FEDC5A" stroke-width="2" stroke-linecap="round" stroke-linejoin="round"/>
<path id="Vector_5" d="M16 2.66699V6.25366" stroke="#292D32" stroke-width="2" stroke-linecap="round" stroke-linejoin="round"/>
</g>
</g>
</svg>
