<svg width="32" height="32" viewBox="0 0 32 32" fill="none" xmlns="http://www.w3.org/2000/svg">
<g id="vuesax/linear/code">
<g id="code">
<path id="Vector" d="M12.0004 17.333C11.1204 17.773 10.387 18.4263 9.84035 19.2397C9.53368 19.7063 9.53368 20.293 9.84035 20.7597C10.387 21.573 11.1204 22.2263 12.0004 22.6663" stroke="#FEDC5A" stroke-width="2" stroke-linecap="round" stroke-linejoin="round"/>
<path id="Vector_2" d="M20.2803 17.333C21.1603 17.773 21.8936 18.4263 22.4403 19.2397C22.7469 19.7063 22.7469 20.293 22.4403 20.7597C21.8936 21.573 21.1603 22.2263 20.2803 22.6663" stroke="#FEDC5A" stroke-width="2" stroke-linecap="round" stroke-linejoin="round"/>
<path id="Vector_3" d="M12.0003 29.3337H20.0003C26.667 29.3337 29.3337 26.667 29.3337 20.0003V12.0003C29.3337 5.33366 26.667 2.66699 20.0003 2.66699H12.0003C5.33366 2.66699 2.66699 5.33366 2.66699 12.0003V20.0003C2.66699 26.667 5.33366 29.3337 12.0003 29.3337Z" stroke="#FEDC5A" stroke-width="2" stroke-linecap="round" stroke-linejoin="round"/>
<path id="Vector_4" d="M2.97363 10.6803L28.6003 10.667" stroke="#FEDC5A" stroke-width="2" stroke-linecap="round" stroke-linejoin="round"/>
</g>
</g>
</svg>
