<svg width="32" height="32" viewBox="0 0 32 32" fill="none" xmlns="http://www.w3.org/2000/svg">
<g id="vuesax/linear/layer">
<g id="layer">
<path id="Vector" d="M17.3464 3.89375L25.213 7.38708C27.4797 8.38708 27.4797 10.0404 25.213 11.0404L17.3464 14.5338C16.453 14.9338 14.9864 14.9338 14.093 14.5338L6.22637 11.0404C3.9597 10.0404 3.9597 8.38708 6.22637 7.38708L14.093 3.89375C14.9864 3.49375 16.453 3.49375 17.3464 3.89375Z" stroke="#F04037" stroke-width="2" stroke-linecap="round" stroke-linejoin="round"/>
<path id="Vector_2" d="M4 14.667C4 15.787 4.84 17.0803 5.86667 17.5337L14.92 21.5603C15.6133 21.867 16.4 21.867 17.08 21.5603L26.1333 17.5337C27.16 17.0803 28 15.787 28 14.667" stroke="#F04037" stroke-width="2" stroke-linecap="round" stroke-linejoin="round"/>
<path id="Vector_3" d="M4 21.333C4 22.573 4.73333 23.693 5.86667 24.1997L14.92 28.2263C15.6133 28.533 16.4 28.533 17.08 28.2263L26.1333 24.1997C27.2667 23.693 28 22.573 28 21.333" stroke="#F04037" stroke-width="2" stroke-linecap="round" stroke-linejoin="round"/>
</g>
</g>
</svg>
