<svg width="32" height="32" viewBox="0 0 32 32" fill="none" xmlns="http://www.w3.org/2000/svg">
<g id="vuesax/linear/video-play">
<g id="video-play">
<path id="Vector" d="M29.3337 20.0003V12.0003C29.3337 5.33366 26.667 2.66699 20.0003 2.66699H12.0003C5.33366 2.66699 2.66699 5.33366 2.66699 12.0003V20.0003C2.66699 26.667 5.33366 29.3337 12.0003 29.3337H20.0003C26.667 29.3337 29.3337 26.667 29.3337 20.0003Z" stroke="#F04037" stroke-width="2" stroke-linecap="round" stroke-linejoin="round"/>
<path id="Vector_2" d="M3.36035 9.48047H28.6404" stroke="#F04037" stroke-width="2" stroke-linecap="round" stroke-linejoin="round"/>
<path id="Vector_3" d="M11.3604 2.81348V9.29348" stroke="#F04037" stroke-width="2" stroke-linecap="round" stroke-linejoin="round"/>
<path id="Vector_4" d="M20.6396 2.81348V8.69348" stroke="#F04037" stroke-width="2" stroke-linecap="round" stroke-linejoin="round"/>
<path id="Vector_5" d="M13 19.2662V17.6662C13 15.6128 14.4533 14.7728 16.2267 15.7995L17.6133 16.5995L19 17.3995C20.7733 18.4262 20.7733 20.1062 19 21.1328L17.6133 21.9328L16.2267 22.7328C14.4533 23.7595 13 22.9195 13 20.8662V19.2662V19.2662Z" stroke="#F04037" stroke-width="2" stroke-miterlimit="10" stroke-linecap="round" stroke-linejoin="round"/>
</g>
</g>
</svg>
